<svg width="132" height="127" viewBox="0 0 132 127" fill="none" xmlns="http://www.w3.org/2000/svg">
<path d="M67.5 0C39.6101 0 17 22.1624 17 49.5C17 76.8376 39.6101 99 67.5 99C95.3899 99 118 76.8376 118 49.5C118 22.1624 95.3899 0 67.5 0ZM50.1976 77.0023H41.8793V44.817H65.3105V52.96H50.1976V77.0045V77.0023ZM94.5796 77.0615H54.4903V68.9016H94.5796V77.0615ZM94.5796 52.9262H69.6011L69.5968 44.7663H94.5796V52.9262ZM94.5796 28.9451H50.1976V40.8543H41.8793V20.7894L94.5796 20.7936V28.9472V28.9451Z" fill="#DFD1B6"/>
<path d="M0 126.103V113.733H8.90837V115.982H2.33775V119.362H8.55363V121.521H2.33775V126.103H0Z" fill="#DFD1B6"/>
<path d="M19.7635 126.103H10.4844V113.716H19.7635V115.982H12.8045V118.83H19.5158V121.006H12.8045V123.802H19.7635V126.103Z" fill="#DFD1B6"/>
<path d="M30.992 122.458H27.4862V126.103H25.1484V113.716C27.0963 113.716 29.0442 113.698 30.992 113.698C37.0481 113.698 37.0657 122.458 30.992 122.458ZM27.4862 120.317H30.992C33.9849 120.317 33.9673 115.927 30.992 115.927H27.4862V120.317Z" fill="#DFD1B6"/>
<path d="M48.116 126.103H45.3356L41.7227 121.963H39.4745V126.103H37.1367V113.698C39.1022 113.698 41.0676 113.716 43.033 113.716C45.9556 113.733 47.496 115.68 47.496 117.821C47.496 119.52 46.7162 121.236 44.3609 121.714L48.1144 125.943V126.103H48.116ZM39.4745 115.892V119.855H43.0346C44.5223 119.855 45.1598 118.864 45.1598 117.874C45.1598 116.884 44.5047 115.892 43.0346 115.892H39.4745Z" fill="#DFD1B6"/>
<path d="M61.2533 119.98C61.2181 123.183 59.2527 126.386 54.8952 126.386C50.5377 126.386 48.5195 123.253 48.5195 119.997C48.5195 116.742 50.6096 113.468 54.8952 113.468C59.1808 113.468 61.2885 116.742 61.2533 119.98ZM50.8221 120.032C50.8749 122.068 51.9726 124.244 54.8952 124.244C57.8178 124.244 58.9156 122.051 58.9507 120.015C58.9859 117.926 57.8178 115.59 54.8952 115.59C51.9726 115.59 50.7694 117.944 50.8221 120.032Z" fill="#DFD1B6"/>
<path d="M73.7765 117.131L69.7386 122.511H69.2784L65.3299 117.114V126.121H62.9922V113.733H65.6847L69.5628 119.06L73.4409 113.733H76.1142V126.121H73.7765V117.131Z" fill="#DFD1B6"/>
<path d="M90.4916 119.98C90.4564 123.183 88.491 126.386 84.1335 126.386C79.776 126.386 77.7578 123.253 77.7578 119.997C77.7578 116.742 79.8479 113.468 84.1335 113.468C88.4191 113.468 90.5267 116.742 90.4916 119.98ZM80.0604 120.032C80.1131 122.068 81.2109 124.244 84.1335 124.244C87.0561 124.244 88.1538 122.051 88.189 120.015C88.2241 117.926 87.0561 115.59 84.1335 115.59C81.2109 115.59 80.0077 117.944 80.0604 120.032Z" fill="#DFD1B6"/>
<path d="M94.6887 115.839H90.7578V113.716H100.957V115.839H97.0264V126.103H94.6887V115.839Z" fill="#DFD1B6"/>
<path d="M102.391 126.103V113.716H104.711V126.103H102.391Z" fill="#DFD1B6"/>
<path d="M119.464 119.98C119.429 123.183 117.464 126.386 113.106 126.386C108.749 126.386 106.73 123.253 106.73 119.997C106.73 116.742 108.821 113.468 113.106 113.468C117.392 113.468 119.499 116.742 119.464 119.98ZM109.033 120.032C109.086 122.068 110.184 124.244 113.106 124.244C116.029 124.244 117.126 122.051 117.162 120.015C117.197 117.926 116.029 115.59 113.106 115.59C110.184 115.59 108.98 117.944 109.033 120.032Z" fill="#DFD1B6"/>
<path d="M129.328 113.698H131.666V126.103H130.213V126.121L123.697 117.751V126.103H121.359V113.716H123.254L129.328 121.396V113.698Z" fill="#DFD1B6"/>
</svg>
