<svg width="92" height="77" viewBox="0 0 92 77" fill="none" xmlns="http://www.w3.org/2000/svg">
<path d="M46 55C61.1877 55 73.5 42.6877 73.5 27.5C73.5 12.3123 61.1877 0 46 0C30.8123 0 18.5 12.3123 18.5 27.5C18.5 42.6877 30.8123 55 46 55ZM60.746 42.8123H38.9156V38.2788H60.746V42.8123ZM60.746 29.4044H47.1442L47.142 24.8709H60.746V29.4044ZM32.048 11.5507L60.746 11.5529V16.0827H36.577V22.6982H32.0473V11.5507H32.048ZM32.048 24.8982H44.8078V29.4221H36.5777V42.7798H32.048V24.8989V24.8982Z" fill="#9DBC78"/>
<path d="M2.13869 76.737H0V65.2466H8.14969V67.3342H2.13869V70.474H7.82565V72.4795H2.13869V76.737Z" fill="#9DBC78"/>
<path d="M18.0776 74.6V76.737H9.58764C9.58764 72.9068 9.58764 69.0603 9.58764 65.2301H18.0776V67.3342H11.7101V69.9808H17.8507V72.0027H11.7101V74.6H18.0776Z" fill="#9DBC78"/>
<path d="M25.1445 76.737H23.0058V65.2466H31.1555V67.3342H25.1445V70.474H30.8315V72.4795H25.1445V76.737Z" fill="#9DBC78"/>
<path d="M34.9228 76.737H32.8003V65.2301H34.9228V76.737Z" fill="#9DBC78"/>
<path d="M44.3826 72.3644V65.2137H46.5213V76.737H45.1927V76.7534L39.2303 68.9781V76.737H37.0916V65.2301H38.8252L44.3826 72.3644Z" fill="#9DBC78"/>
<path d="M57.4884 76.737L56.5324 74.5671H50.6024L49.6303 76.737H47.3134L52.4009 65.2301H54.734L59.8215 76.737H57.4884ZM55.6737 72.5452L53.5674 67.6466L51.4611 72.5452H55.6737Z" fill="#9DBC78"/>
<path d="M68.2428 72.3644V65.2137H70.3815V76.737H69.0529V76.7534L63.0905 68.9781V76.737H60.9518V65.2301H62.6855L68.2428 72.3644Z" fill="#9DBC78"/>
<path d="M80.8787 73.7945L82.3369 75.2904C81.1704 76.4575 79.6636 77 78.0271 77C73.8146 77 72.0323 74.0575 72.0161 71.0658C71.9999 68.0575 73.928 65 78.0271 65C79.5663 65 81.0245 65.5918 82.1911 66.7589L80.7653 68.1562C80.02 67.4164 79.0155 67.0712 78.0271 67.0712C75.289 67.0712 74.1062 69.1425 74.1224 71.0658C74.1386 72.9726 75.2242 74.9616 78.0271 74.9616C79.0155 74.9616 80.1334 74.5507 80.8787 73.7945Z" fill="#9DBC78"/>
<path d="M92 74.6V76.737H83.5101C83.5101 72.9068 83.5101 69.0603 83.5101 65.2301H92V67.3342H85.6325V69.9808H91.7732V72.0027H85.6325V74.6H92Z" fill="#9DBC78"/>
</svg>
