<svg width="123" height="77" viewBox="0 0 123 77" fill="none" xmlns="http://www.w3.org/2000/svg">
<path d="M61.1172 55C76.3049 55 88.6172 42.6877 88.6172 27.5C88.6172 12.3123 76.3049 0 61.1172 0C45.9295 0 33.6172 12.3123 33.6172 27.5C33.6172 42.6877 45.9295 55 61.1172 55ZM75.8632 42.8123H54.0328V38.2788H75.8632V42.8123ZM75.8632 29.4044H62.2614L62.2592 24.8709H75.8632V29.4044ZM47.1652 11.5507L75.8632 11.5529V16.0827H51.6942V22.6982H47.1644V11.5507H47.1652ZM47.1652 24.8982H59.925V29.4221H51.6949V42.7798H47.1652V24.8989V24.8982Z" fill="#DFD1B6"/>
<path d="M2.16986 76.737H0V65.2466H8.26849V67.3342H2.16986V70.474H7.93972V72.4795H2.16986V76.737Z" fill="#DFD1B6"/>
<path d="M18.3411 74.6V76.737H9.7274C9.7274 72.9068 9.7274 69.0603 9.7274 65.2301H18.3411V67.3342H11.8808V69.9808H18.111V72.0027H11.8808V74.6H18.3411Z" fill="#DFD1B6"/>
<path d="M25.511 67.2849V71.3616H28.7658C31.5439 71.3616 31.5275 67.2849 28.7658 67.2849H25.511ZM28.7658 65.2137C34.3878 65.2137 34.4042 73.3507 28.7658 73.3507H25.511V76.737H23.3412V65.2301C25.1494 65.2301 26.9576 65.2137 28.7658 65.2137Z" fill="#DFD1B6"/>
<path d="M44.6581 76.589V76.737H42.0773L38.7239 72.8904H36.6362V76.737H34.4664V65.2137C36.291 65.2137 38.1157 65.2301 39.9403 65.2301C42.6527 65.2466 44.0828 67.0548 44.0828 69.0438C44.0828 70.6219 43.3595 72.2164 41.1732 72.6603L44.6581 76.589ZM39.9403 67.2521H36.6362V70.9342H39.9403C41.3211 70.9342 41.9129 70.0137 41.9129 69.0932C41.9129 68.1726 41.3047 67.2521 39.9403 67.2521Z" fill="#DFD1B6"/>
<path d="M50.9508 65C54.9124 65 56.8851 68.0411 56.8522 71.0493C56.8193 74.0247 54.9946 77 50.9508 77C46.907 77 45.033 74.0904 45.033 71.0658C45.033 68.0411 46.9727 65 50.9508 65ZM50.9508 66.9726C48.2385 66.9726 47.1207 69.1589 47.17 71.0986C47.2193 72.989 48.2385 75.011 50.9508 75.011C53.6631 75.011 54.6823 72.9726 54.7152 71.0822C54.7481 69.1425 53.6631 66.9726 50.9508 66.9726Z" fill="#DFD1B6"/>
<path d="M68.4767 76.7534V68.4027L64.7287 73.4H64.3013L60.6356 68.3863V76.7534H58.4657V65.2466H60.9643L64.5643 70.1945L68.1643 65.2466H70.6465V76.7534H68.4767Z" fill="#DFD1B6"/>
<path d="M78.0966 65C82.0582 65 84.0308 68.0411 83.9979 71.0493C83.9651 74.0247 82.1404 77 78.0966 77C74.0527 77 72.1788 74.0904 72.1788 71.0658C72.1788 68.0411 74.1185 65 78.0966 65ZM78.0966 66.9726C75.3842 66.9726 74.2664 69.1589 74.3158 71.0986C74.3651 72.989 75.3842 75.011 78.0966 75.011C80.8089 75.011 81.8281 72.9726 81.861 71.0822C81.8938 69.1425 80.8089 66.9726 78.0966 66.9726Z" fill="#DFD1B6"/>
<path d="M87.8961 76.737V67.2027H84.2468V65.2301C87.5674 65.2301 90.3783 65.2301 93.7153 65.2301V67.2027H90.066V76.737H87.8961Z" fill="#DFD1B6"/>
<path d="M97.2041 76.737H95.0507V65.2301H97.2041V76.737Z" fill="#DFD1B6"/>
<path d="M105.002 65C108.963 65 110.936 68.0411 110.903 71.0493C110.87 74.0247 109.045 77 105.002 77C100.958 77 99.0837 74.0904 99.0837 71.0658C99.0837 68.0411 101.023 65 105.002 65ZM105.002 66.9726C102.289 66.9726 101.171 69.1589 101.221 71.0986C101.27 72.989 102.289 75.011 105.002 75.011C107.714 75.011 108.733 72.9726 108.766 71.0822C108.799 69.1425 107.714 66.9726 105.002 66.9726Z" fill="#DFD1B6"/>
<path d="M120.062 72.3644V65.2137H122.232V76.737H120.884V76.7534L114.834 68.9781V76.737H112.664V65.2301H114.423L120.062 72.3644Z" fill="#DFD1B6"/>
</svg>
