<svg width="158" height="77" viewBox="0 0 158 77" fill="none" xmlns="http://www.w3.org/2000/svg">
<path d="M78.8984 55C94.0861 55 106.398 42.6877 106.398 27.5C106.398 12.3123 94.0861 0 78.8984 0C63.7108 0 51.3984 12.3123 51.3984 27.5C51.3984 42.6877 63.7108 55 78.8984 55ZM93.6445 42.8123H71.8141V38.2788H93.6445V42.8123ZM93.6445 29.4044H80.0427L80.0405 24.8709H93.6445V29.4044ZM64.9464 11.5507L93.6445 11.5529V16.0827H69.4754V22.6982H64.9457V11.5507H64.9464ZM64.9464 24.8982H77.7063V29.4221H69.4762V42.7798H64.9464V24.8989V24.8982Z" fill="#82CCD5"/>
<path d="M0 76.7093V65.4067H7.68939V67.461H2.01786V70.5496H7.3832V72.5221H2.01786V76.7093H0Z" fill="#82CCD5"/>
<path d="M17.0602 76.7093H9.05078V65.3906H17.0602V67.4609H11.0535V70.0637H16.8464V72.0523H11.0535V74.6069H17.0602V76.7093Z" fill="#82CCD5"/>
<path d="M29.6852 76.7093H21.6758V65.3906H29.6852V67.4609H23.6785V70.0637H29.4714V72.0523H23.6785V74.6069H29.6852V76.7093Z" fill="#82CCD5"/>
<path d="M38.5971 65.3745H40.615V76.7092H39.3612V76.7253L33.7366 69.0774V76.7092H31.7188V65.3906H33.3546L38.5971 72.4082V65.3745Z" fill="#82CCD5"/>
<path d="M50.4391 76.7093H42.4297V65.3906H50.4391V67.4609H44.4324V70.0637H50.2253V72.0523H44.4324V74.6069H50.4391V76.7093Z" fill="#82CCD5"/>
<path d="M61.4925 76.7092H59.0926L55.9741 72.9261H54.0335V76.7092H52.0156V65.3745C53.7121 65.3745 55.4086 65.3906 57.1051 65.3906C59.6278 65.4066 60.9574 67.1851 60.9574 69.1416C60.9574 70.6939 60.2843 72.2623 58.2513 72.6985L61.4912 76.5633V76.7092H61.4925ZM54.0335 67.3791V71.0003H57.1065C58.3906 71.0003 58.9409 70.0943 58.9409 69.1897C58.9409 68.2852 58.3754 67.3791 57.1065 67.3791H54.0335Z" fill="#82CCD5"/>
<path d="M70.2683 68.1555C69.5497 67.4275 68.4794 67.0234 67.547 67.0234C65.2546 67.0234 63.863 68.866 63.863 71.1945C63.863 73.0547 64.8878 74.9776 67.547 74.9776C68.3883 74.9776 69.1221 74.7836 69.9621 74.0716V72.067H67.2256V70.1587H71.8117V74.928C70.7565 76.2046 69.4269 76.9648 67.547 76.9648C63.5264 76.9648 61.8906 74.1679 61.8906 71.1931C61.8906 68.0082 63.7706 65.0654 67.547 65.0654C68.9842 65.0654 70.42 65.6476 71.5206 66.7958L70.2669 68.1541L70.2683 68.1555Z" fill="#82CCD5"/>
<path d="M73.4844 76.7093V65.3906H75.4871V76.7093H73.4844Z" fill="#82CCD5"/>
<path d="M85.357 76.7093H77.3477V65.3906H85.357V67.4609H79.3503V70.0637H85.1432V72.0523H79.3503V74.6069H85.357V76.7093Z" fill="#82CCD5"/>
<path d="M93.836 68.1237C93.4691 67.4773 92.4609 66.8631 91.2982 66.8631C89.8003 66.8631 89.0817 67.5255 89.0817 68.3673C89.0817 69.3536 90.1824 69.6278 91.4664 69.7898C93.6981 70.0801 95.7766 70.6958 95.7766 73.3949C95.7766 75.9175 93.6677 77 91.283 77C89.0969 77 87.4155 76.288 86.6211 74.2192L88.3024 73.2971C88.7769 74.5416 90.0141 75.0917 91.3134 75.0917C92.6126 75.0917 93.774 74.6233 93.774 73.3934C93.774 72.3269 92.7188 71.8892 91.2982 71.7273C89.112 71.453 87.0942 70.8373 87.0942 68.2987C87.0942 65.9702 89.2651 65.016 91.2361 65C92.9023 65 94.6291 65.5019 95.4401 67.2483L93.8346 68.1207L93.836 68.1237Z" fill="#82CCD5"/>
<path d="M101.371 70.0637L104.214 65.3906H106.644V65.4884L102.379 72.0362V76.7093H100.362V72.0362L96.25 65.4884V65.3906H98.6499L101.371 70.0637Z" fill="#82CCD5"/>
<path d="M114.137 68.1237C113.77 67.4773 112.762 66.8631 111.599 66.8631C110.101 66.8631 109.382 67.5255 109.382 68.3673C109.382 69.3536 110.483 69.6278 111.767 69.7898C113.999 70.0801 116.077 70.6958 116.077 73.3949C116.077 75.9175 113.969 77 111.584 77C109.398 77 107.716 76.288 106.922 74.2192L108.603 73.2971C109.078 74.5416 110.315 75.0917 111.614 75.0917C112.913 75.0917 114.075 74.6233 114.075 73.3934C114.075 72.3269 113.02 71.8892 111.599 71.7273C109.413 71.453 107.395 70.8373 107.395 68.2987C107.395 65.9702 109.566 65.016 111.537 65C113.203 65 114.93 65.5019 115.741 67.2483L114.135 68.1207L114.137 68.1237Z" fill="#82CCD5"/>
<path d="M120.409 67.3311H117.016V65.3906H125.819V67.3311H122.426V76.7093H120.409V67.3311Z" fill="#82CCD5"/>
<path d="M135.017 76.7093H127.008V65.3906H135.017V67.4609H129.011V70.0637H134.803V72.0523H129.011V74.6069H135.017V76.7093Z" fill="#82CCD5"/>
<path d="M145.898 68.5114L142.413 73.4267H142.016L138.608 68.4954V76.7254H136.59V65.4067H138.913L142.26 70.2738L145.607 65.4067H147.916V76.7254H145.898V68.5114Z" fill="#82CCD5"/>
<path d="M157.795 76.7093H149.785V65.3906H157.795V67.4609H151.788V70.0637H157.581V72.0523H151.788V74.6069H157.795V76.7093Z" fill="#82CCD5"/>
</svg>
