<svg width="133" height="34" viewBox="0 0 133 34" fill="none" xmlns="http://www.w3.org/2000/svg">
<mask id="mask0_1272_603" style="mask-type:luminance" maskUnits="userSpaceOnUse" x="0" y="0" width="133" height="34">
<path d="M133 0H0V33.2714H133V0Z" fill="white"/>
</mask>
<g mask="url(#mask0_1272_603)">
<path d="M27.1562 23.854H29.535C30.3409 23.854 30.9017 23.6735 31.2305 23.3511C31.5593 23.0224 31.7334 22.4616 31.7334 21.6879V5.14551H36.4331V22.5454C36.4331 24.2731 35.9561 25.5818 34.9761 26.4392C33.9963 27.303 32.5393 27.7479 30.6052 27.7479H27.1562V23.854Z" fill="#222221"/>
<path d="M45.7192 23.8283H56.8463V27.7543H41.0195V5.14551H56.5755V9.07159H45.7192V14.1903H56.3692V18.1165H45.7192V23.8283Z" fill="#222221"/>
<path d="M64.0082 27.3672C62.6415 26.7741 61.539 25.9425 60.7074 24.8401C59.8757 23.7376 59.3665 22.429 59.1602 20.9139H64.0661C64.2144 22.0744 64.7173 22.9641 65.5812 23.5894C66.445 24.2147 67.5151 24.5113 68.7917 24.5113C69.8361 24.5113 70.7257 24.3952 71.467 24.1567C72.2085 23.9182 72.7758 23.5894 73.1625 23.1446C73.5493 22.6997 73.7556 22.1905 73.7556 21.5974C73.7556 21.0042 73.6074 20.5529 73.2786 20.1984C72.9498 19.8438 72.4727 19.5409 71.8539 19.3087C71.2285 19.0702 70.3647 18.8316 69.2365 18.5674L66.026 17.8518C64.0339 17.4327 62.4867 16.7236 61.3843 15.6792C60.2819 14.6349 59.7469 13.2682 59.7469 11.5726C59.7469 10.2961 60.1336 9.13573 60.9073 8.12358C61.6808 7.11145 62.7253 6.31204 64.0597 5.74472C65.3942 5.17741 66.8834 4.88086 68.5208 4.88086C70.3388 4.88086 71.9119 5.15163 73.2528 5.68671C74.5938 6.22179 75.6317 6.96317 76.4052 7.91728C77.1789 8.87141 77.6818 9.9996 77.8944 11.2761H72.9884C72.692 10.3542 72.1568 9.67082 71.4091 9.22598C70.6676 8.78116 69.7136 8.56842 68.5532 8.56842C67.8117 8.56842 67.1284 8.65867 66.5031 8.86497C65.8777 9.07127 65.3749 9.36781 65.0139 9.75462C64.6592 10.1414 64.4788 10.5863 64.4788 11.0955C64.4788 11.6306 64.627 12.0497 64.9236 12.372C65.2202 12.7008 65.6649 12.9651 66.2646 13.2036C66.8576 13.4421 67.7214 13.6807 68.8496 13.9451L72.0602 14.6606C74.2328 15.1377 75.8702 15.8791 76.9403 16.8911C78.0106 17.9033 78.5456 19.3023 78.5456 21.0558C78.5456 22.5128 78.1266 23.7957 77.3272 24.8658C76.5214 25.9361 75.3932 26.7419 73.904 27.3028C72.4148 27.8701 70.6934 28.1344 68.7271 28.1344C67.0316 28.1344 65.3749 27.9603 64.0082 27.3672Z" fill="#222221"/>
<path d="M98.1086 27.7543L96.1745 21.6557H86.298L84.3641 27.7543H79.4258L86.9234 5.14551H95.5492L103.047 27.7543H98.1086ZM87.5487 17.7296H94.9238L91.2363 6.09963L87.5487 17.7296Z" fill="#222221"/>
<path d="M132.997 27.7543H128.329V5.91911L123.358 27.7543H114.997L110.059 6.0674V27.7543H105.359V5.14551H114.462L119.194 27.0065L123.894 5.14551H132.997V27.7543Z" fill="#222221"/>
<path d="M4.52492 5.14551H0V9.67042H4.52492V5.14551Z" fill="#222221"/>
<path d="M9.04836 5.14551H4.52344V9.67042H9.04836V5.14551Z" fill="#222221"/>
<path d="M13.5796 5.14551H9.05469V9.67042H13.5796V5.14551Z" fill="#222221"/>
<path d="M22.6265 5.14551H18.1016V9.67042H22.6265V5.14551Z" fill="#222221"/>
<path d="M4.52492 9.66895H0V14.1939H4.52492V9.66895Z" fill="#222221"/>
<path d="M18.1031 9.66895H13.5781V14.1939H18.1031V9.66895Z" fill="#222221"/>
<path d="M4.52492 14.1987H0V18.7237H4.52492V14.1987Z" fill="#222221"/>
<path d="M13.5796 14.1987H9.05469V18.7237H13.5796V14.1987Z" fill="#222221"/>
<path d="M22.6265 14.1987H18.1016V18.7237H22.6265V14.1987Z" fill="#222221"/>
<path d="M9.04836 18.7231H4.52344V23.2481H9.04836V18.7231Z" fill="#222221"/>
<path d="M22.6265 18.7231H18.1016V23.2481H22.6265V18.7231Z" fill="#222221"/>
<path d="M4.52492 23.2485H0V27.7735H4.52492V23.2485Z" fill="#222221"/>
<path d="M13.5796 23.2485H9.05469V27.7735H13.5796V23.2485Z" fill="#222221"/>
<path d="M18.1031 23.2485H13.5781V27.7735H18.1031V23.2485Z" fill="#222221"/>
<path d="M22.6265 23.2485H18.1016V27.7735H22.6265V23.2485Z" fill="#222221"/>
</g>
</svg>
