<svg width="141" height="77" viewBox="0 0 141 77" fill="none" xmlns="http://www.w3.org/2000/svg">
<path d="M70.0977 55C85.2853 55 97.5977 42.6877 97.5977 27.5C97.5977 12.3123 85.2853 0 70.0977 0C54.91 0 42.5977 12.3123 42.5977 27.5C42.5977 42.6877 54.91 55 70.0977 55ZM84.8437 42.8123H63.0133V38.2788H84.8437V42.8123ZM84.8437 29.4044H71.2419L71.2397 24.8709H84.8437V29.4044ZM56.1456 11.5507L84.8437 11.5529V16.0827H60.6747V22.6982H56.1449V11.5507H56.1456ZM56.1456 24.8982H68.9055V29.4221H60.6754V42.7798H56.1456V24.8989V24.8982Z" fill="#6C8AC7"/>
<path d="M2.15217 76.7391H0V65.3424H8.20109V67.413H2.15217V70.5272H7.875V72.5163H2.15217V76.7391Z" fill="#6C8AC7"/>
<path d="M18.1916 74.6196V76.7391H9.6481C9.6481 72.9402 9.6481 69.125 9.6481 65.3261H18.1916V67.413H11.784V70.038H17.9633V72.0435H11.784V74.6196H18.1916Z" fill="#6C8AC7"/>
<path d="M33.0965 76.7554V68.4728L29.3792 73.4293H28.9552L25.3194 68.4565V76.7554H23.1672V65.3424H25.6455L29.2161 70.25L32.7868 65.3424H35.2487V76.7554H33.0965Z" fill="#6C8AC7"/>
<path d="M46.3391 76.7391L45.3772 74.587H39.4098L38.4315 76.7391H36.1L41.2196 65.3261H43.5674L48.6869 76.7391H46.3391ZM44.513 72.5815L42.3935 67.7228L40.2739 72.5815H44.513Z" fill="#6C8AC7"/>
<path d="M57.1614 72.4022V65.3098H59.3136V76.7391H57.9766V76.7554L51.9766 69.0435V76.7391H49.8244V65.3261H51.569L57.1614 72.4022Z" fill="#6C8AC7"/>
<path d="M70.3498 76.7391L69.3879 74.587H63.4205L62.4422 76.7391H60.1107L65.2302 65.3261H67.5781L72.6976 76.7391H70.3498ZM68.5237 72.5815L66.4042 67.7228L64.2846 72.5815H68.5237Z" fill="#6C8AC7"/>
<path d="M82.9619 66.7446L81.6249 68.1141C80.8586 67.3804 79.7173 66.9728 78.7227 66.9728C76.2771 66.9728 74.7934 68.8315 74.7934 71.1793C74.7934 73.0543 75.8858 74.9946 78.7227 74.9946C79.6195 74.9946 80.4021 74.7989 81.2988 74.0815V72.0598H78.3803V70.1359H83.2716V74.9457C82.1466 76.2337 80.7282 77 78.7227 77C74.4347 77 72.6901 74.1793 72.6901 71.1793C72.6901 67.9674 74.6956 65 78.7227 65C80.2553 65 81.7879 65.587 82.9619 66.7446Z" fill="#6C8AC7"/>
<path d="M93.5355 74.6196V76.7391H84.992C84.992 72.9402 84.992 69.125 84.992 65.3261H93.5355V67.413H87.1279V70.038H93.3072V72.0435H87.1279V74.6196H93.5355Z" fill="#6C8AC7"/>
<path d="M105.145 76.7554V68.4728L101.427 73.4293H101.003L97.3674 68.4565V76.7554H95.2152V65.3424H97.6935L101.264 70.25L104.835 65.3424H107.297V76.7554H105.145Z" fill="#6C8AC7"/>
<path d="M117.833 74.6196V76.7391H109.289C109.289 72.9402 109.289 69.125 109.289 65.3261H117.833V67.413H111.425V70.038H117.605V72.0435H111.425V74.6196H117.833Z" fill="#6C8AC7"/>
<path d="M127.347 72.4022V65.3098H129.499V76.7391H128.162V76.7554L122.162 69.0435V76.7391H120.01V65.3261H121.754L127.347 72.4022Z" fill="#6C8AC7"/>
<path d="M134.421 76.7391V67.2826H130.801V65.3261C134.095 65.3261 136.883 65.3261 140.193 65.3261V67.2826H136.573V76.7391H134.421Z" fill="#6C8AC7"/>
</svg>
