<svg width="76" height="77" viewBox="0 0 76 77" fill="none" xmlns="http://www.w3.org/2000/svg">
<path d="M37.7812 55C52.9689 55 65.2812 42.6877 65.2812 27.5C65.2812 12.3123 52.9689 0 37.7812 0C22.5936 0 10.2812 12.3123 10.2812 27.5C10.2812 42.6877 22.5936 55 37.7812 55ZM52.5273 42.8123H30.6969V38.2788H52.5273V42.8123ZM52.5273 29.4044H38.9255L38.9233 24.8709H52.5273V29.4044ZM23.8292 11.5507L52.5273 11.5529V16.0827H28.3583V22.6982H23.8285V11.5507H23.8292ZM23.8292 24.8982H36.5891V29.4221H28.359V42.7798H23.8292V24.8989V24.8982Z" fill="#A3195B"/>
<path d="M2.13477 76.7089H0V65.4043H8.13477V67.4582H2.13477V70.5472H7.81132V72.5202H2.13477V76.7089Z" fill="#A3195B"/>
<path d="M18.0445 74.6065V76.7089H9.57008C9.57008 72.9407 9.57008 69.1563 9.57008 65.3881H18.0445V67.4582H11.6887V70.062H17.8181V72.0512H11.6887V74.6065H18.0445Z" fill="#A3195B"/>
<path d="M22.9637 65.3881H25.0985V74.7358H30.9206V76.7089H22.9637V65.3881Z" fill="#A3195B"/>
<path d="M40.866 74.6065V76.7089H32.3916C32.3916 72.9407 32.3916 69.1563 32.3916 65.3881H40.866V67.4582H34.5102V70.062H40.6396V72.0512H34.5102V74.6065H40.866Z" fill="#A3195B"/>
<path d="M51.5079 76.7089L50.5537 74.5741H44.6346L43.6642 76.7089H41.3516L46.4298 65.3881H48.7586L53.8368 76.7089H51.5079ZM49.6966 72.5849L47.5942 67.7655L45.4917 72.5849H49.6966Z" fill="#A3195B"/>
<path d="M59.4527 65.3881C63.3341 65.3881 65.0645 68.1536 65.113 70.9515C65.1616 73.814 63.4149 76.7089 59.4527 76.7089C58.0618 76.7089 56.3961 76.7089 55.0052 76.7089V65.3881C56.3961 65.3881 58.0618 65.3881 59.4527 65.3881ZM57.1238 67.4097V74.655H59.4527C62.0241 74.655 63.043 72.779 62.9944 70.9353C62.9459 69.1725 61.9109 67.4097 59.4527 67.4097H57.1238Z" fill="#A3195B"/>
<path d="M75.2067 67.248L73.5086 68.1213C73.1205 67.4744 72.0531 66.8598 70.824 66.8598C69.2391 66.8598 68.4789 67.5229 68.4789 68.3639C68.4789 69.3504 69.6434 69.6253 71.0019 69.7871C73.363 70.0782 75.5625 70.6927 75.5625 73.3935C75.5625 75.9164 73.3307 77 70.8078 77C68.4951 77 66.7161 76.2884 65.8752 74.2183L67.6541 73.2965C68.1555 74.5418 69.4655 75.0916 70.8401 75.0916C72.1824 75.0916 73.4439 74.6226 73.4439 73.3935C73.4439 72.3261 72.328 71.8895 70.824 71.7278C68.5113 71.4528 66.3765 70.8383 66.3765 68.2992C66.3765 65.9704 68.673 65.0162 70.7593 65C72.5221 65 74.3496 65.5013 75.2067 67.248Z" fill="#A3195B"/>
</svg>
