<svg width="151" height="77" viewBox="0 0 151 77" fill="none" xmlns="http://www.w3.org/2000/svg">
<path d="M75.0977 55C90.2853 55 102.598 42.6877 102.598 27.5C102.598 12.3123 90.2861 0 75.0977 0C59.9093 0 47.5977 12.3123 47.5977 27.5C47.5977 42.6877 59.91 55 75.0977 55ZM89.8437 42.8123H68.0133V38.2788H89.8437V42.8123ZM89.8437 29.4044H76.2419L76.2397 24.8709H89.8437V29.4044ZM61.1456 11.5507L89.8437 11.5529V16.0827H65.6747V22.6982H61.1449V11.5507H61.1456ZM61.1456 24.8982H73.9055V29.4221H65.6754V42.7798H61.1456V24.8989V24.8982Z" fill="#CC966A"/>
<path d="M2.13477 76.7089H0V65.4043H8.13477V67.4582H2.13477V70.5472H7.81132V72.5202H2.13477V76.7089Z" fill="#CC966A"/>
<path d="M18.0445 74.6065V76.7089H9.57008C9.57008 72.9407 9.57008 69.1563 9.57008 65.3881H18.0445V67.4582H11.6887V70.062H17.8181V72.0512H11.6887V74.6065H18.0445Z" fill="#CC966A"/>
<path d="M31.4866 73.814L32.9421 75.2857C31.7777 76.434 30.2737 76.9677 28.6402 76.9677C24.4354 76.9677 22.6564 74.0728 22.6402 71.1294C22.6241 68.1698 24.5486 65.1617 28.6402 65.1617C30.1766 65.1617 31.6322 65.7439 32.7966 66.8922L31.3734 68.2668C30.6295 67.5391 29.6268 67.1995 28.6402 67.1995C25.9071 67.1995 24.7265 69.2372 24.7427 71.1294C24.7588 73.0054 25.8424 74.9623 28.6402 74.9623C29.6268 74.9623 30.7427 74.558 31.4866 73.814Z" fill="#CC966A"/>
<path d="M39.4662 65.1617C43.3638 65.1617 45.3045 68.1536 45.2722 71.1132C45.2398 74.0404 43.4447 76.9677 39.4662 76.9677C35.4878 76.9677 33.6441 74.1051 33.6441 71.1294C33.6441 68.1536 35.5525 65.1617 39.4662 65.1617ZM39.4662 67.1024C36.7978 67.1024 35.698 69.2534 35.7465 71.1617C35.7951 73.0216 36.7978 75.0108 39.4662 75.0108C42.1347 75.0108 43.1374 73.0054 43.1697 71.1456C43.2021 69.2372 42.1347 67.1024 39.4662 67.1024Z" fill="#CC966A"/>
<path d="M54.2828 72.407V65.372H56.4175V76.7089H55.0914V76.7251L49.1399 69.0755V76.7089H47.0051V65.3881H48.7356L54.2828 72.407Z" fill="#CC966A"/>
<path d="M67.231 67.248L65.5329 68.1213C65.1447 67.4744 64.0774 66.8598 62.8483 66.8598C61.2633 66.8598 60.5032 67.5229 60.5032 68.3639C60.5032 69.3504 61.6677 69.6253 63.0261 69.7871C65.3873 70.0782 67.5868 70.6927 67.5868 73.3935C67.5868 75.9164 65.355 77 62.8321 77C60.5194 77 58.7404 76.2884 57.8995 74.2183L59.6784 73.2965C60.1798 74.5418 61.4898 75.0916 62.8644 75.0916C64.2067 75.0916 65.4682 74.6226 65.4682 73.3935C65.4682 72.3261 64.3523 71.8895 62.8483 71.7278C60.5356 71.4528 58.4008 70.8383 58.4008 68.2992C58.4008 65.9704 60.6973 65.0162 62.7836 65C64.5464 65 66.3739 65.5013 67.231 67.248Z" fill="#CC966A"/>
<path d="M72.1658 76.7089V67.3288H68.5755V65.3881C71.8423 65.3881 74.6078 65.3881 77.8908 65.3881V67.3288H74.3005V76.7089H72.1658Z" fill="#CC966A"/>
<path d="M89.2316 76.5633V76.7089H86.6925L83.3933 72.9245H81.3394V76.7089H79.2046V65.372C80.9997 65.372 82.7949 65.3881 84.59 65.3881C87.2585 65.4043 88.6655 67.1833 88.6655 69.1402C88.6655 70.6927 87.9539 72.2615 85.803 72.6981L89.2316 76.5633ZM84.59 67.3774H81.3394V71H84.59C85.9485 71 86.5307 70.0943 86.5307 69.1887C86.5307 68.283 85.9324 67.3774 84.59 67.3774Z" fill="#CC966A"/>
<path d="M98.2605 65.4043H100.379V71.8895C100.379 75.2372 98.3252 76.9515 95.4788 76.9515C92.7618 76.9515 90.4492 75.3019 90.4492 71.8895V65.4043H92.5678V71.8895C92.5678 73.9272 93.7322 75.0108 95.495 75.0108C97.2578 75.0108 98.2605 73.8302 98.2605 71.8895V65.4043Z" fill="#CC966A"/>
<path d="M110.991 73.814L112.446 75.2857C111.282 76.434 109.778 76.9677 108.145 76.9677C103.94 76.9677 102.161 74.0728 102.145 71.1294C102.128 68.1698 104.053 65.1617 108.145 65.1617C109.681 65.1617 111.136 65.7439 112.301 66.8922L110.878 68.2668C110.134 67.5391 109.131 67.1995 108.145 67.1995C105.411 67.1995 104.231 69.2372 104.247 71.1294C104.263 73.0054 105.347 74.9623 108.145 74.9623C109.131 74.9623 110.247 74.558 110.991 73.814Z" fill="#CC966A"/>
<path d="M116.419 76.7089V67.3288H112.829V65.3881C116.096 65.3881 118.861 65.3881 122.144 65.3881V67.3288H118.554V76.7089H116.419Z" fill="#CC966A"/>
<path d="M125.576 76.7089H123.458V65.3881H125.576V76.7089Z" fill="#CC966A"/>
<path d="M133.248 65.1617C137.145 65.1617 139.086 68.1536 139.054 71.1132C139.021 74.0404 137.226 76.9677 133.248 76.9677C129.269 76.9677 127.426 74.1051 127.426 71.1294C127.426 68.1536 129.334 65.1617 133.248 65.1617ZM133.248 67.1024C130.579 67.1024 129.48 69.2534 129.528 71.1617C129.577 73.0216 130.579 75.0108 133.248 75.0108C135.916 75.0108 136.919 73.0054 136.951 71.1456C136.984 69.2372 135.916 67.1024 133.248 67.1024Z" fill="#CC966A"/>
<path d="M148.064 72.407V65.372H150.199V76.7089H148.873V76.7251L142.921 69.0755V76.7089H140.787V65.3881H142.517L148.064 72.407Z" fill="#CC966A"/>
</svg>
