<svg width="156" height="39" viewBox="0 0 156 39" fill="none" xmlns="http://www.w3.org/2000/svg">
<g clip-path="url(#clip0_1272_657)">
<path d="M60.7918 13.7175C60.7918 13.3952 60.8558 13.282 61.1928 13.218C61.6109 13.1368 62.125 13.1048 62.6561 13.1048C63.1872 13.1048 63.7013 13.1368 64.1193 13.218C64.4563 13.282 64.5374 13.3952 64.5374 13.7175V27.0292C64.5374 27.3516 64.4563 27.4968 64.1193 27.5459C63.7013 27.61 63.2021 27.642 62.6561 27.642C62.11 27.642 61.628 27.61 61.2099 27.5459C60.8729 27.4968 60.7918 27.3516 60.7918 27.0292V13.7175ZM59.3755 9.00133C57.1721 9.00133 56.432 10.0155 56.432 11.8985V31.1968C56.432 31.5191 56.3509 31.6643 56.0139 31.7134C55.5958 31.7775 55.0967 31.8095 54.5506 31.8095C54.0046 31.8095 53.5204 31.7775 53.1023 31.7134C52.7653 31.6643 52.6843 31.5191 52.6843 31.1968V16.2603C52.6843 16.0511 52.5883 15.955 52.3792 15.955H50.3038C50.0308 15.955 49.9177 15.9059 49.8687 15.6177C49.8218 15.3444 49.8047 14.9409 49.8047 14.5715C49.8047 14.2022 49.8218 13.7987 49.8687 13.5254C49.9177 13.235 50.0287 13.1881 50.3038 13.1881H52.3792C52.5883 13.1881 52.6843 13.092 52.6843 12.8828V11.5462C52.6843 7.71606 55.2097 6.23438 58.7633 6.23438C60.7257 6.23438 61.9479 6.62081 62.2679 6.74891C62.575 6.87914 62.6049 6.95814 62.622 7.29547C62.639 7.77798 62.59 8.64906 62.494 9.09954C62.4279 9.40485 62.2849 9.42193 62.0119 9.35574C61.5128 9.24259 60.5167 9.00133 59.3734 9.00133" fill="#4BBF84"/>
<path d="M79.9784 20.3978C79.9784 17.4195 78.8202 15.6495 75.8127 15.6495C72.8051 15.6495 71.649 17.4195 71.649 20.3978C71.649 23.3761 72.8072 25.146 75.8127 25.146C78.8181 25.146 79.9784 23.3761 79.9784 20.3978ZM79.0122 14.2639C79.2212 14.4241 79.2383 14.4241 79.3983 14.4241H79.5582C79.7182 14.4241 79.7502 14.392 79.7502 14.1977V7.50239C79.7502 7.18001 79.8313 7.06685 80.1683 7.0028C80.5863 6.92167 81.1004 6.88965 81.6315 6.88965C82.1626 6.88965 82.6767 6.92167 83.0948 7.0028C83.4318 7.06685 83.4979 7.18001 83.4979 7.50239V27.0761C83.4979 27.3814 83.4488 27.5095 83.1289 27.5586C82.7919 27.6055 82.2437 27.6397 81.7467 27.6397C81.2497 27.6397 80.7804 27.6077 80.4925 27.5586C80.2024 27.5095 80.1064 27.4283 80.0744 27.2041L79.9464 26.4142C79.9294 26.269 79.8654 26.237 79.7203 26.237H79.6244C79.4473 26.237 79.4153 26.2541 79.3023 26.3501C78.2891 27.2682 76.9218 27.7998 74.8635 27.7998C70.7788 27.7998 67.8672 25.4812 67.8672 20.3956C67.8672 15.3101 70.7788 12.9893 74.8635 12.9893C77.1799 12.9893 78.4341 13.7793 79.0122 14.2618" fill="#4BBF84"/>
<path d="M90.7719 20.398C90.7719 23.3763 91.9301 25.1462 94.9377 25.1462C97.9452 25.1462 99.1034 23.3763 99.1034 20.398C99.1034 17.4197 97.9452 15.6498 94.9377 15.6498C91.9301 15.6498 90.7719 17.4197 90.7719 20.398ZM94.1015 12.9938C96.659 12.9938 97.8322 13.9268 98.4913 14.5225C98.6043 14.6186 98.6363 14.6356 98.8133 14.6356H98.9093C99.0544 14.6356 99.1184 14.6036 99.1354 14.4584L99.2634 13.5404C99.2954 13.3141 99.3914 13.2351 99.6815 13.186C99.9716 13.139 100.422 13.107 100.904 13.107C101.386 13.107 101.917 13.139 102.254 13.186C102.576 13.2351 102.623 13.3632 102.623 13.6685V27.0763C102.623 27.3837 102.576 27.5118 102.254 27.5588C101.917 27.6079 101.401 27.6399 100.904 27.6399C100.407 27.6399 99.9716 27.6079 99.6815 27.5588C99.3914 27.5118 99.2954 27.4307 99.2634 27.2044L99.1354 26.3354C99.1184 26.1903 99.0544 26.1582 98.9093 26.1582H98.8133C98.6363 26.1582 98.6043 26.1753 98.4913 26.2714C97.8322 26.867 96.659 27.8 94.1015 27.8C89.5027 27.8 86.9922 25.1932 86.9922 20.3959C86.9922 15.5985 89.5006 12.9917 94.1015 12.9917" fill="#4BBF84"/>
<path d="M114.266 12.9447C116.904 12.9447 118.913 13.5895 119.526 13.8777C119.831 14.0229 119.863 14.0869 119.88 14.4243C119.897 14.9068 119.816 15.7437 119.752 16.1942C119.703 16.4995 119.543 16.5486 119.27 16.4525C118.692 16.2433 116.889 15.6156 114.718 15.6156C111.582 15.6156 109.893 17.0161 109.893 20.3638C109.893 23.7115 111.582 25.1121 114.718 25.1121C116.889 25.1121 118.692 24.4844 119.27 24.2751C119.543 24.1791 119.703 24.2282 119.752 24.5335C119.816 24.984 119.897 25.8209 119.88 26.3034C119.863 26.6407 119.833 26.7069 119.526 26.8499C118.916 27.1403 116.904 27.7829 114.266 27.7829C109.151 27.7829 106.113 25.5924 106.113 20.3617C106.113 15.1309 109.153 12.9404 114.266 12.9404" fill="#4BBF84"/>
<path d="M134.657 20.4617C134.657 17.4043 133.499 15.5533 130.492 15.5533C127.484 15.5533 126.326 17.4043 126.326 20.4617C126.326 23.519 127.484 25.37 130.492 25.37C133.499 25.37 134.657 23.519 134.657 20.4617ZM122.484 20.4617C122.484 15.5042 125.251 12.9443 130.494 12.9443C135.737 12.9443 138.503 15.5042 138.503 20.4617C138.503 25.4191 135.737 27.979 130.494 27.979C125.251 27.979 122.484 25.4191 122.484 20.4617Z" fill="#4BBF84"/>
<path d="M145.787 14.6502C146.237 14.1826 147.413 12.9443 150.29 12.9443C153.989 12.9443 156 14.7954 156 19.2874V27.031C156 27.3513 155.919 27.4986 155.582 27.5456C155.164 27.6096 154.665 27.6417 154.119 27.6417C153.573 27.6417 153.089 27.6096 152.673 27.5456C152.336 27.4986 152.255 27.3513 152.255 27.031V19.8831C152.255 17.2592 151.482 15.7775 148.942 15.7775C146.402 15.7775 145.339 17.3382 145.339 20.4296V27.0289C145.339 27.3492 145.258 27.4965 144.921 27.5434C144.503 27.6075 144.004 27.6395 143.458 27.6395C142.912 27.6395 142.43 27.6075 142.012 27.5434C141.675 27.4965 141.594 27.3492 141.594 27.0289V13.6681C141.594 13.3628 141.643 13.2326 141.965 13.1856C142.302 13.1386 142.914 13.1045 143.411 13.1045C143.908 13.1045 144.343 13.1365 144.633 13.1856C144.923 13.2326 145.019 13.3137 145.051 13.54L145.179 14.5861C145.196 14.7313 145.26 14.7634 145.405 14.7634H145.469C145.646 14.7634 145.678 14.7634 145.792 14.6502" fill="#4BBF84"/>
<path d="M32.1381 0H6.82564C3.05661 0 0 3.05945 0 6.83199V32.168C0 35.9405 3.05661 39 6.82564 39H32.1381C35.9071 39 38.9637 35.9405 38.9637 32.168V6.83199C38.9637 3.05945 35.9071 0 32.1381 0ZM13.8113 11.1361V28.8887C13.8113 29.1854 13.7366 29.3178 13.4273 29.3626C13.0434 29.4224 12.5848 29.4502 12.0814 29.4502C11.578 29.4502 11.1343 29.4203 10.7504 29.3626C10.4411 29.3178 10.3664 29.1854 10.3664 28.8887V15.1499C10.3664 14.9578 10.2769 14.8681 10.0849 14.8681H8.17584C7.92414 14.8681 7.82176 14.8233 7.77483 14.5564C7.73004 14.3045 7.71511 13.9351 7.71511 13.5935C7.71511 13.2519 7.73004 12.8826 7.77483 12.6306C7.81962 12.3638 7.92201 12.3211 8.17584 12.3211H10.0849C10.2769 12.3211 10.3664 12.2314 10.3664 12.0393V10.8095C10.3664 7.28675 12.6893 5.92248 15.9571 5.92248C17.7616 5.92248 18.8857 6.27689 19.1822 6.39645C19.4637 6.51601 19.4936 6.5886 19.5085 6.90031C19.5235 7.34439 19.4787 8.14502 19.3912 8.55921C19.3315 8.84103 19.1992 8.85597 18.9475 8.79619C18.489 8.69371 17.5718 8.47167 16.5223 8.47167C14.496 8.47167 13.8155 9.40466 13.8155 11.1361H13.8113ZM17.8213 25.0542V12.81C17.8213 12.5132 17.881 12.4086 18.1903 12.351C18.5743 12.2762 19.0478 12.2485 19.5363 12.2485C20.0247 12.2485 20.4982 12.2784 20.8822 12.351C21.1936 12.4107 21.2661 12.5132 21.2661 12.81V25.0542C21.2661 25.351 21.1915 25.4833 20.8822 25.5282C20.4982 25.5879 20.0396 25.6157 19.5363 25.6157C19.0329 25.6157 18.5892 25.5858 18.2053 25.5282C17.896 25.4833 17.8213 25.351 17.8213 25.0542ZM31.0929 26.6704C31.0481 26.9373 30.9457 26.98 30.6919 26.98H28.7829C28.5909 26.98 28.5013 27.0696 28.5013 27.2618V28.4915C28.5013 32.0143 26.1785 33.3786 22.9107 33.3786C21.1062 33.3786 19.9821 33.0241 19.6856 32.9046C19.404 32.785 19.3742 32.7124 19.3592 32.4007C19.3443 31.9566 19.3891 31.156 19.4765 30.7418C19.5363 30.46 19.6685 30.4451 19.9202 30.5048C20.3788 30.6073 21.296 30.8294 22.3454 30.8294C24.3718 30.8294 25.0522 29.8964 25.0522 28.1649V10.4145C25.0522 10.1178 25.1269 9.98538 25.4362 9.94055C25.8201 9.88077 26.2787 9.85301 26.7821 9.85301C27.2855 9.85301 27.7292 9.8829 28.1131 9.94055C28.4224 9.98538 28.497 10.1178 28.497 10.4145V24.1532C28.497 24.3454 28.5866 24.435 28.7786 24.435H30.6876C30.9393 24.435 31.0417 24.4799 31.0887 24.7468C31.1334 24.9987 31.1484 25.368 31.1484 25.7096C31.1484 26.0512 31.1334 26.4206 31.0887 26.6725H31.0929V26.6704Z" fill="#4BBF84"/>
<path d="M106.93 31.758C106.924 31.7217 106.922 31.6811 106.922 31.6427C106.922 31.6021 106.924 31.5637 106.93 31.5274C106.937 31.4868 106.947 31.4868 106.984 31.4868H107.385C107.425 31.4868 107.432 31.4761 107.432 31.4398V31.1516C107.432 30.4983 107.82 30.2144 108.419 30.2144C108.677 30.2144 108.891 30.2677 108.955 30.2912C108.991 30.3019 108.995 30.3083 108.995 30.3446C108.995 30.4044 108.989 30.4748 108.978 30.5517C108.972 30.588 108.965 30.5923 108.931 30.588C108.854 30.5709 108.667 30.5239 108.46 30.5239C107.988 30.5239 107.837 30.7417 107.837 31.1772V34.0574C107.837 34.0979 107.837 34.1107 107.79 34.1171C107.752 34.1235 107.692 34.1257 107.634 34.1257C107.577 34.1257 107.517 34.1235 107.479 34.1171C107.432 34.1107 107.432 34.1001 107.432 34.0574V31.8476C107.432 31.8113 107.425 31.8007 107.385 31.8007H106.984C106.947 31.8007 106.937 31.8007 106.93 31.7601V31.758ZM108.677 31.5487C108.677 31.5082 108.677 31.4954 108.724 31.4889C108.763 31.4825 108.822 31.4804 108.88 31.4804C108.938 31.4804 108.997 31.4825 109.036 31.4889C109.083 31.4954 109.083 31.506 109.083 31.5487V34.0552C109.083 34.0958 109.083 34.1086 109.036 34.115C108.997 34.1214 108.938 34.1235 108.88 34.1235C108.822 34.1235 108.763 34.1214 108.724 34.115C108.677 34.1086 108.677 34.0979 108.677 34.0552V31.5487Z" fill="#4BBF84"/>
<path d="M110.32 31.7623H110.333C110.35 31.7623 110.357 31.7623 110.374 31.7452C110.598 31.5445 110.841 31.4527 111.203 31.4527C111.85 31.4527 112.392 31.7922 112.392 32.7871C112.392 33.782 111.85 34.1514 111.203 34.1514C110.886 34.1514 110.628 34.083 110.391 33.8589C110.367 33.8354 110.361 33.8354 110.337 33.8354H110.323C110.299 33.8354 110.286 33.8418 110.284 33.8674L110.259 34.0553C110.252 34.0958 110.246 34.1087 110.205 34.1151C110.173 34.1215 110.12 34.1236 110.067 34.1236C110.011 34.1236 109.958 34.1215 109.926 34.1151C109.885 34.1087 109.879 34.098 109.879 34.0553V30.4023C109.879 30.3617 109.879 30.3489 109.926 30.3425C109.964 30.3361 110.024 30.334 110.082 30.334C110.139 30.334 110.199 30.3361 110.237 30.3425C110.284 30.3489 110.284 30.3596 110.284 30.4023V31.7196C110.284 31.7559 110.291 31.7602 110.32 31.7602V31.7623ZM111.98 32.8042C111.98 32.1765 111.756 31.758 111.114 31.758C110.472 31.758 110.248 32.1765 110.248 32.8042C110.248 33.4319 110.472 33.8439 111.114 33.8439C111.756 33.8439 111.98 33.4319 111.98 32.8042Z" fill="#4BBF84"/>
<path d="M112.895 32.802C112.895 32.012 113.245 31.4526 114.168 31.4526C114.998 31.4526 115.431 31.854 115.431 32.6781C115.431 32.7486 115.425 32.8318 115.418 32.8852C115.412 32.9386 115.395 32.9493 115.341 32.9493H113.371C113.341 32.9493 113.33 32.9621 113.33 32.9898C113.33 33.6624 113.855 33.8374 114.347 33.8374C114.776 33.8374 115.09 33.7264 115.194 33.6901C115.205 33.688 115.218 33.6837 115.226 33.6837C115.243 33.6837 115.256 33.6901 115.258 33.7136C115.271 33.7734 115.275 33.8844 115.275 33.9484C115.275 33.9847 115.269 33.9954 115.239 34.0082C115.156 34.0445 114.851 34.1491 114.356 34.1491C113.496 34.1491 112.891 33.8332 112.891 32.7998L112.895 32.802ZM114.96 32.6482C115 32.6482 115.007 32.6312 115.007 32.5885C115.007 32.0355 114.697 31.7473 114.168 31.7473C113.639 31.7473 113.33 32.0355 113.33 32.5885C113.33 32.629 113.336 32.6482 113.377 32.6482H114.96Z" fill="#4BBF84"/>
<path d="M116.111 31.4914C116.143 31.485 116.197 31.4828 116.252 31.4828C116.307 31.4828 116.359 31.485 116.391 31.4914C116.431 31.4999 116.438 31.5085 116.444 31.5512L116.47 31.7668C116.472 31.7924 116.484 31.7988 116.508 31.7988H116.516C116.54 31.7988 116.548 31.8009 116.57 31.7753C116.747 31.5661 117.018 31.4551 117.344 31.4551C117.429 31.4551 117.474 31.4572 117.513 31.4636C117.557 31.47 117.562 31.4807 117.568 31.5234C117.577 31.5939 117.574 31.7177 117.562 31.786C117.555 31.818 117.547 31.8308 117.515 31.8266C117.461 31.8202 117.397 31.818 117.257 31.818C116.804 31.818 116.472 32.0828 116.472 32.7233V34.0598C116.472 34.1003 116.472 34.1131 116.425 34.1196C116.386 34.126 116.327 34.1281 116.269 34.1281C116.211 34.1281 116.152 34.126 116.113 34.1196C116.066 34.1131 116.066 34.1025 116.066 34.0598V31.5533C116.066 31.5127 116.073 31.5042 116.113 31.4935L116.111 31.4914Z" fill="#4BBF84"/>
<path d="M119.525 33.5493C119.685 33.5493 119.819 33.6731 119.819 33.8439C119.819 34.0147 119.685 34.1386 119.525 34.1386C119.365 34.1386 119.23 34.0147 119.23 33.8439C119.23 33.6731 119.365 33.5493 119.525 33.5493Z" fill="#4BBF84"/>
<path d="M124.145 34.1149C124.113 34.1213 124.06 34.1234 124.005 34.1234C123.951 34.1234 123.898 34.1213 123.866 34.1149C123.825 34.1063 123.819 34.0935 123.813 34.0551L123.787 33.8715C123.785 33.8459 123.772 33.8395 123.749 33.8395H123.734C123.71 33.8395 123.704 33.8395 123.68 33.863C123.533 34.0081 123.331 34.149 122.887 34.149C122.228 34.149 121.68 33.8224 121.68 32.8211C121.68 31.8198 122.232 31.4525 122.891 31.4525C123.42 31.4525 123.638 31.6853 123.698 31.7386C123.713 31.75 123.727 31.7557 123.738 31.7557H123.755C123.779 31.7557 123.785 31.7493 123.785 31.7151V30.4043C123.785 30.3637 123.785 30.3509 123.832 30.3445C123.87 30.3381 123.93 30.3359 123.988 30.3359C124.045 30.3359 124.105 30.3381 124.143 30.3445C124.19 30.3509 124.19 30.3616 124.19 30.4043V34.0572C124.19 34.0978 124.184 34.1063 124.143 34.117L124.145 34.1149ZM123.821 32.804C123.821 32.1763 123.597 31.7578 122.955 31.7578C122.313 31.7578 122.089 32.1763 122.089 32.804C122.089 33.4317 122.313 33.8437 122.955 33.8437C123.597 33.8437 123.821 33.4317 123.821 32.804Z" fill="#4BBF84"/>
<path d="M126.914 33.8696C126.907 33.8397 126.897 33.8376 126.873 33.8376H126.858C126.835 33.8376 126.829 33.8376 126.805 33.8611C126.658 34.002 126.447 34.1493 126.016 34.1493C125.357 34.1493 124.809 33.8013 124.809 32.8C124.809 31.7987 125.357 31.4507 126.016 31.4507C126.445 31.4507 126.658 31.6044 126.805 31.7453C126.829 31.7688 126.835 31.7688 126.858 31.7688H126.871C126.895 31.7688 126.907 31.7688 126.912 31.7389L126.942 31.5468C126.948 31.5062 126.948 31.4934 126.989 31.487C127.021 31.4806 127.08 31.4784 127.136 31.4784C127.191 31.4784 127.251 31.4806 127.283 31.487C127.323 31.4934 127.323 31.5041 127.323 31.5468V34.0532C127.323 34.0938 127.317 34.1024 127.276 34.113C127.244 34.1194 127.191 34.1216 127.136 34.1216C127.08 34.1216 127.029 34.1194 126.997 34.113C126.957 34.1045 126.95 34.0917 126.944 34.0532L126.914 33.8675V33.8696ZM126.952 32.8043C126.952 32.1766 126.728 31.7581 126.086 31.7581C125.444 31.7581 125.222 32.1766 125.222 32.8043C125.222 33.432 125.446 33.844 126.086 33.844C126.726 33.844 126.952 33.432 126.952 32.8043Z" fill="#4BBF84"/>
<path d="M128.542 31.4872H129.308C129.344 31.4872 129.355 31.4872 129.361 31.5277C129.368 31.564 129.37 31.6003 129.37 31.643C129.37 31.6815 129.368 31.722 129.361 31.7583C129.355 31.7989 129.344 31.7989 129.308 31.7989H128.542C128.502 31.7989 128.495 31.8096 128.495 31.8459V33.2485C128.495 33.7439 128.725 33.8015 129.037 33.8015C129.201 33.8015 129.338 33.7716 129.395 33.761C129.404 33.7588 129.412 33.7588 129.421 33.7588C129.436 33.7588 129.444 33.7652 129.446 33.7908C129.455 33.8293 129.461 33.8997 129.461 33.9616C129.461 33.983 129.461 34.0022 129.459 34.0214C129.455 34.0485 129.441 34.0663 129.419 34.0748C129.359 34.0961 129.171 34.1282 128.967 34.1282C128.408 34.1282 128.09 33.904 128.09 33.2806V30.8061C128.09 30.7655 128.09 30.7527 128.137 30.7463C128.175 30.7399 128.235 30.7378 128.292 30.7378C128.35 30.7378 128.41 30.7399 128.448 30.7463C128.495 30.7527 128.495 30.7634 128.495 30.8061V31.4423C128.495 31.4786 128.502 31.4893 128.542 31.4893V31.4872Z" fill="#4BBF84"/>
<path d="M131.875 33.8696C131.868 33.8397 131.858 33.8376 131.834 33.8376H131.819C131.796 33.8376 131.789 33.8376 131.766 33.8611C131.619 34.002 131.408 34.1493 130.977 34.1493C130.318 34.1493 129.77 33.8013 129.77 32.8C129.77 31.7987 130.318 31.4507 130.977 31.4507C131.406 31.4507 131.619 31.6044 131.766 31.7453C131.789 31.7688 131.796 31.7688 131.819 31.7688H131.832C131.856 31.7688 131.868 31.7688 131.873 31.7389L131.903 31.5468C131.909 31.5062 131.909 31.4934 131.949 31.487C131.981 31.4806 132.041 31.4784 132.097 31.4784C132.152 31.4784 132.212 31.4806 132.244 31.487C132.284 31.4934 132.284 31.5041 132.284 31.5468V34.0532C132.284 34.0938 132.278 34.1024 132.237 34.113C132.205 34.1194 132.152 34.1216 132.097 34.1216C132.041 34.1216 131.99 34.1194 131.958 34.113C131.917 34.1045 131.911 34.0917 131.905 34.0532L131.875 33.8675V33.8696ZM131.913 32.8043C131.913 32.1766 131.689 31.7581 131.047 31.7581C130.405 31.7581 130.183 32.1766 130.183 32.8043C130.183 33.432 130.407 33.844 131.047 33.844C131.687 33.844 131.913 33.432 131.913 32.8043Z" fill="#4BBF84"/>
<path d="M134.615 33.5493C134.775 33.5493 134.909 33.6731 134.909 33.8439C134.909 34.0147 134.775 34.1386 134.615 34.1386C134.455 34.1386 134.32 34.0147 134.32 33.8439C134.32 33.6731 134.455 33.5493 134.615 33.5493Z" fill="#4BBF84"/>
<path d="M138.111 31.4526C138.576 31.4526 138.888 31.5743 138.954 31.5999C138.992 31.6149 138.994 31.6234 138.994 31.6704C138.994 31.7345 138.988 31.8113 138.977 31.8711C138.969 31.9117 138.952 31.9159 138.907 31.901C138.809 31.869 138.519 31.7665 138.124 31.7665C137.501 31.7665 137.183 32.138 137.183 32.8041C137.183 33.4702 137.501 33.8417 138.124 33.8417C138.519 33.8417 138.809 33.7392 138.907 33.7072C138.952 33.6922 138.969 33.6965 138.977 33.7371C138.988 33.7969 138.994 33.8716 138.994 33.9378C138.994 33.9847 138.992 33.9933 138.954 34.0082C138.89 34.0338 138.576 34.1555 138.111 34.1555C137.288 34.1555 136.77 33.7371 136.77 32.8062C136.77 31.8754 137.288 31.4569 138.111 31.4569V31.4526Z" fill="#4BBF84"/>
<path d="M140.674 31.4526C141.55 31.4526 141.968 31.9181 141.968 32.802C141.968 33.6858 141.55 34.1513 140.674 34.1513C139.797 34.1513 139.379 33.6858 139.379 32.802C139.379 31.9181 139.797 31.4526 140.674 31.4526ZM140.674 33.8502C141.335 33.8502 141.557 33.4254 141.557 32.802C141.557 32.1785 141.335 31.7537 140.674 31.7537C140.012 31.7537 139.791 32.1785 139.791 32.802C139.791 33.4254 140.012 33.8502 140.674 33.8502Z" fill="#4BBF84"/>
<path d="M143.78 31.7667C143.328 31.7667 142.976 32.0015 142.976 32.6911V34.0554C142.976 34.0959 142.976 34.1088 142.929 34.1152C142.89 34.1216 142.831 34.1237 142.773 34.1237C142.715 34.1237 142.656 34.1216 142.617 34.1152C142.57 34.1088 142.57 34.0981 142.57 34.0554V31.5489C142.57 31.5083 142.577 31.4998 142.617 31.4891C142.649 31.4827 142.703 31.4806 142.758 31.4806C142.813 31.4806 142.865 31.4827 142.897 31.4891C142.937 31.4977 142.944 31.5062 142.95 31.5489L142.976 31.7346C142.978 31.7581 142.991 31.7667 143.014 31.7667H143.023C143.046 31.7667 143.055 31.7667 143.076 31.7432C143.221 31.5895 143.453 31.4507 143.867 31.4507C144.556 31.4507 144.859 31.7709 144.859 32.516V34.0532C144.859 34.0938 144.859 34.1066 144.812 34.113C144.774 34.1194 144.714 34.1216 144.656 34.1216C144.599 34.1216 144.539 34.1194 144.501 34.113C144.454 34.1066 144.454 34.0959 144.454 34.0532V32.578C144.454 32.0335 144.298 31.7645 143.78 31.7645V31.7667Z" fill="#4BBF84"/>
<path d="M146.862 31.7667C146.41 31.7667 146.058 32.0015 146.058 32.6911V34.0554C146.058 34.0959 146.058 34.1088 146.011 34.1152C145.972 34.1216 145.913 34.1237 145.855 34.1237C145.797 34.1237 145.738 34.1216 145.699 34.1152C145.652 34.1088 145.652 34.0981 145.652 34.0554V31.5489C145.652 31.5083 145.659 31.4998 145.699 31.4891C145.731 31.4827 145.785 31.4806 145.84 31.4806C145.893 31.4806 145.947 31.4827 145.979 31.4891C146.019 31.4977 146.026 31.5062 146.032 31.5489L146.058 31.7346C146.06 31.7581 146.073 31.7667 146.096 31.7667H146.105C146.128 31.7667 146.137 31.7667 146.158 31.7432C146.303 31.5895 146.535 31.4507 146.949 31.4507C147.638 31.4507 147.941 31.7709 147.941 32.516V34.0532C147.941 34.0938 147.941 34.1066 147.894 34.113C147.856 34.1194 147.796 34.1216 147.738 34.1216C147.681 34.1216 147.621 34.1194 147.583 34.113C147.536 34.1066 147.536 34.0959 147.536 34.0532V32.578C147.536 32.0335 147.38 31.7645 146.862 31.7645V31.7667Z" fill="#4BBF84"/>
<path d="M148.539 32.802C148.539 32.012 148.889 31.4526 149.813 31.4526C150.643 31.4526 151.076 31.854 151.076 32.6781C151.076 32.7486 151.069 32.8318 151.063 32.8852C151.056 32.9386 151.039 32.9493 150.986 32.9493H149.015C148.985 32.9493 148.975 32.9621 148.975 32.9898C148.975 33.6624 149.499 33.8374 149.992 33.8374C150.421 33.8374 150.734 33.7264 150.839 33.6901C150.849 33.688 150.862 33.6837 150.871 33.6837C150.888 33.6837 150.901 33.6901 150.903 33.7136C150.913 33.7734 150.92 33.8844 150.92 33.9484C150.92 33.9847 150.913 33.9954 150.884 34.0082C150.8 34.0445 150.495 34.1491 150.001 34.1491C149.141 34.1491 148.535 33.8332 148.535 32.7998L148.539 32.802ZM150.604 32.6482C150.645 32.6482 150.651 32.6312 150.651 32.5885C150.651 32.0355 150.342 31.7473 149.813 31.7473C149.284 31.7473 148.975 32.0355 148.975 32.5885C148.975 32.629 148.981 32.6482 149.021 32.6482H150.604Z" fill="#4BBF84"/>
<path d="M152.924 31.4526C153.389 31.4526 153.7 31.5743 153.766 31.5999C153.805 31.6149 153.807 31.6234 153.807 31.6704C153.807 31.7345 153.8 31.8113 153.79 31.8711C153.781 31.9117 153.764 31.9159 153.719 31.901C153.621 31.869 153.331 31.7665 152.936 31.7665C152.314 31.7665 151.996 32.138 151.996 32.8041C151.996 33.4702 152.314 33.8417 152.936 33.8417C153.331 33.8417 153.621 33.7392 153.719 33.7072C153.764 33.6922 153.781 33.6965 153.79 33.7371C153.8 33.7969 153.807 33.8716 153.807 33.9378C153.807 33.9847 153.805 33.9933 153.766 34.0082C153.702 34.0338 153.389 34.1555 152.924 34.1555C152.1 34.1555 151.582 33.7371 151.582 32.8062C151.582 31.8754 152.1 31.4569 152.924 31.4569V31.4526Z" fill="#4BBF84"/>
<path d="M154.874 31.4872H155.64C155.676 31.4872 155.687 31.4872 155.693 31.5277C155.7 31.564 155.702 31.6003 155.702 31.643C155.702 31.6815 155.7 31.722 155.693 31.7583C155.687 31.7989 155.676 31.7989 155.64 31.7989H154.874C154.834 31.7989 154.827 31.8096 154.827 31.8459V33.2485C154.827 33.7439 155.058 33.8015 155.369 33.8015C155.533 33.8015 155.67 33.7716 155.727 33.761C155.736 33.7588 155.744 33.7588 155.753 33.7588C155.768 33.7588 155.776 33.7652 155.778 33.7908C155.787 33.8293 155.793 33.8997 155.793 33.9616C155.793 33.983 155.793 34.0022 155.791 34.0214C155.787 34.0485 155.774 34.0663 155.751 34.0748C155.691 34.0961 155.503 34.1282 155.299 34.1282C154.74 34.1282 154.422 33.904 154.422 33.2806V30.8061C154.422 30.7655 154.422 30.7527 154.469 30.7463C154.507 30.7399 154.567 30.7378 154.625 30.7378C154.682 30.7378 154.742 30.7399 154.78 30.7463C154.827 30.7527 154.827 30.7634 154.827 30.8061V31.4423C154.827 31.4786 154.834 31.4893 154.874 31.4893V31.4872Z" fill="#4BBF84"/>
</g>
<defs>
<clipPath id="clip0_1272_657">
<rect width="156" height="39" fill="white"/>
</clipPath>
</defs>
</svg>
