<svg width="38" height="37" viewBox="0 0 38 37" fill="none" xmlns="http://www.w3.org/2000/svg">
<path d="M18.9954 12.3307C15.5983 12.3307 12.8261 15.103 12.8261 18.5C12.8261 21.897 15.5983 24.6693 18.9954 24.6693C22.3924 24.6693 25.1647 21.897 25.1647 18.5C25.1647 15.103 22.3924 12.3307 18.9954 12.3307ZM37.4986 18.5C37.4986 15.9453 37.5218 13.4137 37.3783 10.8636C37.2348 7.90159 36.5591 5.27281 34.3932 3.10685C32.2226 0.936258 29.5984 0.26518 26.6364 0.121708C24.0817 -0.0217641 21.5501 0.00137661 19 0.00137661C16.4453 0.00137661 13.9137 -0.0217641 11.3636 0.121708C8.40159 0.26518 5.77281 0.940886 3.60685 3.10685C1.43626 5.27744 0.76518 7.90159 0.621708 10.8636C0.478236 13.4183 0.501377 15.9499 0.501377 18.5C0.501377 21.0501 0.478236 23.5863 0.621708 26.1364C0.76518 29.0984 1.44089 31.7272 3.60685 33.8932C5.77744 36.0637 8.40159 36.7348 11.3636 36.8783C13.9183 37.0218 16.4499 36.9986 19 36.9986C21.5547 36.9986 24.0863 37.0218 26.6364 36.8783C29.5984 36.7348 32.2272 36.0591 34.3932 33.8932C36.5637 31.7226 37.2348 29.0984 37.3783 26.1364C37.5264 23.5863 37.4986 21.0547 37.4986 18.5ZM18.9954 27.9923C13.7424 27.9923 9.50308 23.7529 9.50308 18.5C9.50308 13.2471 13.7424 9.00771 18.9954 9.00771C24.2483 9.00771 28.4877 13.2471 28.4877 18.5C28.4877 23.7529 24.2483 27.9923 18.9954 27.9923ZM28.8764 10.8358C27.65 10.8358 26.6595 9.8454 26.6595 8.61895C26.6595 7.3925 27.65 6.40208 28.8764 6.40208C30.1029 6.40208 31.0933 7.3925 31.0933 8.61895C31.0937 8.91018 31.0366 9.19861 30.9253 9.46774C30.814 9.73687 30.6507 9.9814 30.4448 10.1873C30.2389 10.3933 29.9943 10.5565 29.7252 10.6678C29.4561 10.7791 29.1677 10.8362 28.8764 10.8358Z" fill="#404040"/>
</svg>
