<svg width="22" height="22" viewBox="0 0 22 22" fill="none" xmlns="http://www.w3.org/2000/svg">
<path fill-rule="evenodd" clip-rule="evenodd" d="M1.64844 10.9999C1.64844 12.2278 1.89028 13.4436 2.36016 14.578C2.83005 15.7124 3.51876 16.7431 4.38699 17.6114C5.25522 18.4796 6.28595 19.1683 7.42035 19.6382C8.55474 20.1081 9.77058 20.3499 10.9984 20.3499C12.2263 20.3499 13.4421 20.1081 14.5765 19.6382C15.7109 19.1683 16.7417 18.4796 17.6099 17.6114C18.4781 16.7431 19.1668 15.7124 19.6367 14.578C20.1066 13.4436 20.3484 12.2278 20.3484 10.9999C20.3484 8.52013 19.3634 6.14192 17.6099 4.38845C15.8564 2.63499 13.4782 1.6499 10.9984 1.6499C8.51866 1.6499 6.14045 2.63499 4.38699 4.38845C2.63352 6.14192 1.64844 8.52013 1.64844 10.9999ZM19.2484 10.9999C19.2484 13.1879 18.3792 15.2864 16.8321 16.8335C15.2849 18.3807 13.1865 19.2499 10.9984 19.2499C8.8104 19.2499 6.71198 18.3807 5.16481 16.8335C3.61763 15.2864 2.74844 13.1879 2.74844 10.9999C2.74844 8.81187 3.61763 6.71345 5.16481 5.16627C6.71198 3.6191 8.8104 2.7499 10.9984 2.7499C13.1865 2.7499 15.2849 3.6191 16.8321 5.16627C18.3792 6.71345 19.2484 8.81187 19.2484 10.9999Z" fill="#DFD1B6"/>
<path fill-rule="evenodd" clip-rule="evenodd" d="M7.14844 10.9997C7.14844 15.8353 8.73464 19.7997 10.9984 19.7997C13.2622 19.7997 14.8484 15.8353 14.8484 10.9997C14.8484 6.16411 13.2622 2.19971 10.9984 2.19971C8.73464 2.19971 7.14844 6.16411 7.14844 10.9997ZM13.7484 10.9997C13.7484 15.2776 12.3789 18.6997 10.9984 18.6997C9.61794 18.6997 8.24844 15.2776 8.24844 10.9997C8.24844 6.72181 9.61794 3.29971 10.9984 3.29971C12.3789 3.29971 13.7484 6.72181 13.7484 10.9997Z" fill="#DFD1B6"/>
<path d="M4.10772 5.84306L4.84472 5.02686C4.96242 5.13246 5.08782 5.23586 5.22202 5.33596C6.67182 6.42276 8.95982 7.08496 11.4535 7.08496C13.5798 7.08496 15.5642 6.60426 17.014 5.77596C17.3481 5.58696 17.6637 5.3671 17.9567 5.11926L18.6717 5.95526C18.3439 6.23576 17.9721 6.49426 17.5607 6.72966C15.936 7.65916 13.7635 8.18496 11.4535 8.18496C8.73652 8.18496 6.21532 7.45566 4.56202 6.21596C4.40492 6.09833 4.25333 5.97463 4.10772 5.84306ZM4.10772 16.1699L4.84472 16.9839C4.96242 16.8783 5.08782 16.7749 5.22202 16.6759C6.67182 15.5891 8.95982 14.9269 11.4535 14.9269C13.5798 14.9269 15.5642 15.4065 17.014 16.2359C17.3671 16.4383 17.6828 16.6583 17.9567 16.8915L18.6717 16.0555C18.3264 15.7632 17.9544 15.5039 17.5607 15.2811C15.936 14.3527 13.7635 13.8269 11.4535 13.8269C8.73652 13.8269 6.21532 14.5562 4.56202 15.7948C4.40142 15.9158 4.24962 16.0412 4.10772 16.1699ZM2.19922 11.5499V10.4499H19.7992V11.5499H2.19922Z" fill="#DFD1B6"/>
</svg>
