<svg width="477" height="72" viewBox="0 0 477 72" fill="none" xmlns="http://www.w3.org/2000/svg">
<path d="M46.5138 70L24.7858 43.325L15.6678 52.831V70H0.0507812V2.10003H15.6678V33.819L45.7378 2.10003H63.1978L35.0678 32.364L64.8468 70H46.5138Z" fill="white"/>
<path d="M102.274 71.164C80.8366 71.164 65.1226 56.226 65.1226 36.05C65.1226 15.874 80.8366 0.936035 102.274 0.936035C123.614 0.936035 139.425 15.777 139.425 36.05C139.425 56.323 123.614 71.164 102.274 71.164ZM102.274 57.778C114.399 57.778 123.517 48.951 123.517 36.05C123.517 23.149 114.399 14.322 102.274 14.322C90.1486 14.322 81.0306 23.149 81.0306 36.05C81.0306 48.951 90.1486 57.778 102.274 57.778Z" fill="white"/>
<path d="M197.988 2.10003H213.508V70H200.607L166.754 28.775V70H151.234V2.10003H164.232L197.988 43.325V2.10003Z" fill="white"/>
<path d="M243.638 70V14.904H221.91V2.10003H281.08V14.904H259.352V70H243.638Z" fill="white"/>
<path d="M336.856 70L330.842 55.45H299.317L293.303 70H277.201L307.465 2.10003H322.985L353.346 70H336.856ZM304.361 43.519H325.895L315.128 17.523L304.361 43.519Z" fill="white"/>
<path d="M406.854 70L385.126 43.325L376.008 52.831V70H360.391V2.10003H376.008V33.819L406.078 2.10003H423.538L395.408 32.364L425.187 70H406.854Z" fill="white"/>
<path d="M441.617 70V14.904H419.889V2.10003H479.059V14.904H457.331V70H441.617Z" fill="white"/>
</svg>
