<svg width="201" height="53" viewBox="0 0 201 53" fill="none" xmlns="http://www.w3.org/2000/svg">
<g clip-path="url(#clip0_1253_326)">
<path d="M63.5781 35.4316H67.2587V28.321H77.0443V24.9714H67.2587V19.7277H77.6024V16.2402H63.5781V35.4316Z" fill="white"/>
<path d="M80.082 35.4314H94.692V31.8625H83.7351V27.5246H94.3015V24.148H83.7351V19.7275H94.692V16.2129H80.082V35.4314Z" fill="white"/>
<path d="M112.12 27.5516H117.111V30.9554C115.578 32.1631 114.239 32.4933 112.706 32.4933C107.855 32.4933 105.986 29.2263 105.986 26.069C105.986 22.1156 108.523 18.9855 112.706 18.9855C114.406 18.9855 116.357 19.6719 117.669 20.9068L119.955 18.601C117.948 16.6514 115.327 15.6631 112.707 15.6631C105.82 15.6631 102.391 20.6602 102.391 26.0679C102.391 31.1193 105.374 35.8689 112.707 35.8689C116.136 35.8689 118.561 34.5786 120.486 32.4096V24.3106H112.122V27.5504L112.12 27.5516Z" fill="white"/>
<path d="M139.553 22.5827C139.553 19.2603 137.127 16.241 132.527 16.2127C129.432 16.2127 126.337 16.1855 123.242 16.1855V35.4312H126.923V29.007H130.463L136.151 35.4312H140.529V35.1836L134.618 28.6225C138.326 27.8806 139.553 25.2187 139.553 22.5827ZM126.923 25.74V19.5905H132.527C134.841 19.5905 135.872 21.1284 135.872 22.6652C135.872 24.202 134.869 25.74 132.527 25.74H126.923Z" fill="white"/>
<path d="M151.209 15.8281C144.462 15.8281 141.172 20.9067 141.172 25.9593C141.172 31.0119 144.351 35.8699 151.209 35.8699C158.067 35.8699 161.162 30.901 161.218 25.931C161.275 20.9067 157.928 15.8281 151.209 15.8281ZM151.209 32.5475C146.608 32.5475 144.88 29.1709 144.796 26.0136C144.712 22.7737 146.608 19.1222 151.209 19.1222C155.809 19.1222 157.649 22.7466 157.594 25.9864C157.538 29.1437 155.809 32.5475 151.209 32.5475Z" fill="white"/>
<path d="M177.388 27.25C177.388 30.5442 175.66 32.5491 172.62 32.5491C169.58 32.5491 167.574 30.7093 167.574 27.25V16.2402H163.922V27.25C163.922 33.0433 167.909 35.8433 172.592 35.8433C177.275 35.8433 181.04 32.9336 181.04 27.25V16.2402H177.388V27.25Z" fill="white"/>
<path d="M193.838 16.1855C190.77 16.1855 187.704 16.2127 184.637 16.2127V35.4312H188.317V29.7759H193.838C203.4 29.7759 203.373 16.1855 193.838 16.1855ZM193.838 26.4535H188.317V19.6448H193.838C198.522 19.6448 198.55 26.4535 193.838 26.4535Z" fill="white"/>
<path d="M26.9116 0C12.049 0 0 11.8647 0 26.5C0 41.1353 12.049 53 26.9116 53C41.7742 53 53.8232 41.1353 53.8232 26.5C53.8232 11.8647 41.7742 0 26.9116 0ZM17.6911 41.2235H13.2583V23.9929H25.7448V28.3523H17.6911V41.2246V41.2235ZM41.3424 41.2551H19.9787V36.8867H41.3424V41.2551ZM41.3424 28.3342H28.0313L28.029 23.9658H41.3424V28.3342ZM41.3424 15.4958H17.6911V21.8715H13.2583V11.1297L41.3424 11.1319V15.497V15.4958Z" fill="white"/>
</g>
<defs>
<clipPath id="clip0_1253_326">
<rect width="201" height="53" fill="white"/>
</clipPath>
</defs>
</svg>
