<svg width="38" height="37" viewBox="0 0 38 37" fill="none" xmlns="http://www.w3.org/2000/svg">
<path fill-rule="evenodd" clip-rule="evenodd" d="M5.5 0C2.73858 0 0.5 2.23858 0.5 5V32C0.5 34.7614 2.73858 37 5.5 37H32.5C35.2614 37 37.5 34.7614 37.5 32V5C37.5 2.23858 35.2614 0 32.5 0H5.5ZM23.2952 12.3335C21.677 12.3335 20.4116 13.552 19.2671 15.0999C18.4926 14.1144 17.7809 13.4287 17.0693 12.9859C16.6968 12.7553 16.3256 12.59 15.9433 12.484C15.5745 12.3816 15.1971 12.3335 14.8037 12.3335C11.5933 12.3335 9.13281 16.512 9.13281 20.9335C9.13281 23.7011 10.4722 25.4463 12.7144 25.4463C14.3276 25.4463 15.4894 24.6866 17.5528 21.0791L19.0056 18.5137C19.2269 18.8722 19.4448 19.2328 19.6593 19.5954L19.8048 19.8383L20.6275 21.2234C22.5132 24.3782 23.564 25.4463 25.4671 25.4463C27.6513 25.4463 28.8674 23.6765 28.8674 20.8521C28.8661 16.2222 26.3501 12.3335 23.2952 12.3335ZM20.2402 16.4454C20.5276 16.8722 20.826 17.3371 21.1368 17.8428H21.1356L22.2912 19.773C24.1018 22.6836 24.5569 23.3126 25.5102 23.3126C26.5031 23.3126 26.9841 22.4629 26.9841 20.9977C26.9841 17.1546 25.2833 14.0256 23.1583 14.0256C22.1358 14.0256 21.275 14.8261 20.2328 16.4356L20.2402 16.4454ZM17.9955 16.9671C16.8177 15.2812 16.0037 14.6226 15.1095 14.4992V14.5005C14.9998 14.4857 14.8888 14.4783 14.7765 14.4783C12.8673 14.4783 11.2665 17.7614 11.2665 20.9705C11.2665 22.4727 11.8375 23.3139 12.7958 23.3139C13.727 23.3139 14.3054 22.7256 15.979 20.1035C16.6438 19.0533 17.3159 18.0078 17.9955 16.9671Z" fill="#404040"/>
</svg>
